<?xml version="1.0" encoding="UTF-8"?>
<svg xmlns="http://www.w3.org/2000/svg" viewBox="0 0 2160 2160">
  <path fill="#f1891a" d="M1017.09,1395.56c19.9,20.43,47.22,31.96,75.75,31.96h-299.82c-43.2,0-78.23-35.02-78.23-78.23v-263.94l302.29,310.21ZM1366.97,697.12h-118.66c23.68,0,46.45,9.09,63.63,25.4l90.41,85.78h-98.71c-30.27-.01-59.27-12.14-80.55-33.67-9.17-9.27-21.68-14.51-34.72-14.51h-.16l-15.67.04c-12.71.03-19.02,15.44-9.96,24.38l282.62,278.4v-287.59c0-43.2-35.02-78.23-78.23-78.23ZM1445.2,1349.3v-189.11h-128.76c-44.52,0-80.62,36.1-80.62,80.64l.06,153.32-298.17-299.12,223.85,1.12c63.66.26,95.74-76.67,50.77-121.72l-276.79-277.29h-142.51c-43.2,0-78.23,35.02-78.23,78.23v189.11h104.14c46.17,0,83.58-37.45,83.55-83.62l-.13-150.45,273.47,272.74c17.27,17.22,5.11,46.75-19.28,46.82l-327.59,1.02c-.5,0-.76.62-.4.96l375.72,375.6h162.69c43.2,0,78.23-35.02,78.23-78.23Z"/>
</svg>
